<?xml version="1.0" encoding="UTF-8" standalone="no"?>
<!-- Created with Inkscape (http://www.inkscape.org/) -->

<svg
   width="176.52896mm"
   height="67.377686mm"
   viewBox="0 0 176.52896 67.377686"
   version="1.1"
   id="svg1"
   xmlns="http://www.w3.org/2000/svg"
   xmlns:svg="http://www.w3.org/2000/svg">
  <defs
     id="defs1" />
  <g
     id="layer1"
     transform="translate(-293.18462,-97.732765)">
    <g
       id="g11"
       style="fill:#ffffff;fill-opacity:1">
      <path
         d="m 459.3691,146.43759 c 0.0426,-4.4742 0.0213,-8.62881 -0.0639,-12.46384 -0.0852,-3.87763 -0.23436,-7.60613 -0.44742,-11.18549 -0.21305,-3.57935 -0.53264,-7.20132 -0.95875,-10.86591 -0.42611,-3.70719 -0.93745,-7.64874 -1.53401,-11.82466 l 13.29475,-2.17318 c 0.17045,8.65011 -0.0639,16.85281 -0.70308,24.60808 -0.59656,7.75528 -1.59793,15.10575 -3.00411,22.0514 z m -27.61221,-1.59793 v -5.30512 c 2.30101,0 4.00547,-0.98006 5.11336,-2.94019 1.1079,-1.96012 1.66185,-4.72986 1.66185,-8.30922 0,-2.72713 -0.12783,-5.66731 -0.3835,-8.82056 -0.25567,-3.19585 -0.63918,-6.43432 -1.15051,-9.7154 -0.51134,-3.28107 -1.12921,-6.3917 -1.8536,-9.33189 l 13.8061,-2.556687 c 0.25567,4.090687 0.40481,7.989637 0.44742,11.696827 0.0426,3.70719 0.0213,7.0948 -0.0639,10.16282 -0.0852,3.06802 -0.29828,5.75254 -0.63917,8.05356 -0.29828,2.2584 -0.80962,4.41027 -1.53401,6.45562 -0.72439,2.04535 -1.74707,3.87764 -3.06802,5.49687 -1.27835,1.57663 -2.94019,2.83366 -4.98554,3.77111 -2.00273,0.89484 -4.45289,1.34226 -7.35046,1.34226 z m -23.20192,0.63917 c -4.0907,0 -7.4357,-0.80962 -10.03499,-2.42885 -2.55668,-1.66184 -4.62333,-3.94155 -6.19996,-6.83913 -1.57662,-2.94019 -2.89757,-6.30649 -3.96286,-10.0989 l 6.13604,-4.66595 c 0.34089,3.23847 0.89484,5.9869 1.66185,8.24531 0.80961,2.21579 1.76837,4.00547 2.87627,5.36903 1.10789,1.32095 2.34362,2.30102 3.70719,2.94019 1.40617,0.59656 2.85496,0.89484 4.34636,0.89484 1.61923,0 3.02541,-0.31959 4.21853,-0.95876 1.19312,-0.68178 2.10927,-1.55531 2.74844,-2.6206 0.68178,-1.06528 1.02267,-2.19448 1.02267,-3.3876 0,-1.44879 -0.44742,-2.57799 -1.34226,-3.38761 -0.85223,-0.80961 -1.89621,-1.21442 -3.13194,-1.21442 -1.32095,0 -2.66321,0.42611 -4.02677,1.27834 -1.36357,0.85223 -2.66322,2.21579 -3.89895,4.09069 -1.23573,1.8749 -2.34362,4.32506 -3.32369,7.35047 l -3.70719,-1.98143 c 0.51134,-3.19585 1.4701,-5.9869 2.87627,-8.37314 1.40618,-2.42885 3.04672,-4.4529 4.92162,-6.07213 1.91751,-1.66184 3.92025,-2.89757 6.00821,-3.70719 2.08795,-0.85223 4.09069,-1.27834 6.0082,-1.27834 3.53675,0 6.3491,1.00137 8.43706,3.0041 2.13057,1.96013 3.19585,4.58073 3.19585,7.86181 0,2.47146 -0.51134,4.68725 -1.53401,6.64738 -1.02267,1.96012 -2.40754,3.64327 -4.15461,5.04945 -1.70445,1.36356 -3.68588,2.42884 -5.94429,3.19585 -2.21579,0.72439 -4.51681,1.08659 -6.90304,1.08659 z m -30.48846,-0.63917 v -5.30512 c 1.66185,0 2.89758,-0.46872 3.70719,-1.40617 0.80962,-0.93745 1.32096,-2.15188 1.53401,-3.64328 0.21306,-1.4914 0.19176,-3.13194 -0.0639,-4.92162 -0.21305,-1.83229 -0.53264,-3.64327 -0.95875,-5.43295 L 394.4932,121.446 c 0.34089,4.81509 0.0213,8.9697 -0.95875,12.46384 -0.93745,3.49413 -2.66322,6.19996 -5.17729,8.11747 -2.47146,1.8749 -5.90168,2.81235 -10.29065,2.81235 z m 53.69036,0 c -3.49413,0 -6.24257,-1.1292 -8.2453,-3.38761 -2.00274,-2.2584 -3.00411,-5.6247 -3.00411,-10.0989 l 6.58346,-1.85359 c 0,2.34363 0.14914,4.26114 0.44742,5.75254 0.34089,1.49139 0.87354,2.57798 1.59793,3.25977 0.72439,0.68178 1.59793,1.02267 2.6206,1.02267 l 1.27835,2.6206 z m -89.4839,0 v -5.30512 c 3.02541,0 5.77384,-0.27697 8.2453,-0.83092 2.47147,-0.59656 4.62334,-1.38487 6.45563,-2.36493 1.83229,-0.98007 3.23847,-2.06666 4.21853,-3.25978 0.98006,-1.19311 1.47009,-2.38623 1.47009,-3.57935 0,-1.27835 -0.49003,-2.25841 -1.47009,-2.94019 -0.98006,-0.72439 -2.2371,-1.08659 -3.77111,-1.08659 -1.66185,0 -2.9828,0.42611 -3.96286,1.27834 -0.93745,0.80962 -1.40617,1.76838 -1.40617,2.87627 0,1.27834 0.68178,2.51407 2.04534,3.70719 1.36357,1.15051 3.23847,2.19449 5.62471,3.13194 2.38623,0.93745 5.13467,1.68315 8.2453,2.2371 3.15325,0.55395 6.51955,0.83092 10.0989,0.83092 l 1.27835,2.6206 -1.27835,2.68452 c -2.89757,0 -5.88037,-0.19175 -8.94839,-0.57525 -3.06802,-0.42611 -6.02951,-1.04398 -8.88448,-1.8536 -2.85496,-0.80961 -5.41164,-1.85359 -7.67005,-3.13194 -2.2584,-1.27834 -4.04808,-2.79104 -5.36903,-4.53811 -1.27835,-1.74707 -1.91752,-3.7285 -1.91752,-5.94429 0,-1.83229 0.53264,-3.62197 1.59793,-5.36904 1.10789,-1.78968 2.76974,-3.25977 4.98553,-4.41028 2.25841,-1.19312 5.13468,-1.78968 8.62881,-1.78968 2.68452,0 5.04945,0.44742 7.0948,1.34226 2.08796,0.85223 3.7285,2.13057 4.92162,3.83503 1.19312,1.66185 1.78968,3.70719 1.78968,6.13604 0,2.59929 -0.83092,4.92161 -2.49277,6.96696 -1.61923,2.04535 -3.89894,3.77111 -6.83913,5.17729 -2.94019,1.36357 -6.3491,2.40755 -10.22674,3.13194 -3.83503,0.68178 -7.98964,1.02267 -12.46383,1.02267 z m -4e-5,0 c -2.68452,0 -5.07076,-0.46873 -7.15871,-1.40618 -2.08796,-0.98006 -3.81372,-2.49276 -5.17729,-4.53811 -1.32095,-2.04535 -2.21579,-4.64464 -2.68452,-7.79789 -0.72439,-4.77247 -1.19312,-9.86453 -1.40617,-15.27618 -0.17045,-5.45426 -0.27698,-10.99374 -0.31959,-16.618448 l 13.23084,-1.470093 c -0.42611,3.835031 -0.83092,7.670051 -1.21442,11.505081 -0.38351,3.79241 -0.68179,7.41438 -0.89484,10.8659 -0.17045,3.45153 -0.23437,6.64738 -0.19176,9.58757 0.0426,3.06802 0.46872,5.47556 1.27835,7.22263 0.80961,1.74707 2.32232,2.6206 4.53811,2.6206 l 1.27834,2.6206 z m -33.68428,-1.53401 -2.49277,-0.57525 c -2.85496,0 -5.2625,-0.49003 -7.22263,-1.4701 -1.91751,-1.02267 -3.345,-2.34363 -4.28245,-3.96286 -0.93745,-1.66184 -1.40617,-3.45152 -1.40617,-5.36903 0,-2.34363 0.57525,-4.32506 1.72576,-5.94429 1.15051,-1.61923 2.68452,-2.83366 4.60203,-3.64328 1.96013,-0.85223 4.04809,-1.27834 6.26388,-1.27834 2.08795,0 4.17591,0.34089 6.26387,1.02267 2.13057,0.68179 4.02678,2.00274 5.68862,3.96286 l -6.51954,7.41439 c -0.98006,-1.06529 -2.04535,-1.81099 -3.19586,-2.2371 -1.10789,-0.46873 -2.23709,-0.70309 -3.3876,-0.70309 -1.19312,0 -2.27971,0.34089 -3.25977,1.02267 -0.93745,0.63917 -1.40618,1.53401 -1.40618,2.68452 0,1.36357 0.61787,2.40755 1.8536,3.13194 1.27834,0.68178 2.81235,1.02267 4.60203,1.02267 2.00273,0 3.92025,-0.29828 5.75254,-0.89484 1.8749,-0.63917 3.62197,-1.40617 5.2412,-2.30101 l 3.0041,6.32779 z m -7.79789,9.97107 -6.64738,-7.54222 c 1.23573,-1.15051 2.91889,-2.13057 5.04946,-2.94019 2.17318,-0.85223 4.55942,-1.55531 7.15871,-2.10926 2.64191,-0.59656 5.30512,-1.06529 7.98964,-1.40618 l 6.07212,2.2371 c -3.11063,0.76701 -5.79515,1.70446 -8.05355,2.81235 -2.21579,1.06529 -4.23984,2.32232 -6.07213,3.77111 -1.78967,1.44879 -3.62196,3.17455 -5.49687,5.17729 z"
         id="text1"
         style="font-size:63.9171px;font-family:Marhey;-inkscape-font-specification:'Marhey, @wght=567';font-variation-settings:'wght' 567;text-align:center;direction:rtl;text-anchor:middle;fill:#ffffff;fill-opacity:1;stroke-width:15.2194"
         aria-label="الصفاء" />
      <path
         style="font-variation-settings:'wght' 567;fill:#ff0000;fill-opacity:1;stroke-width:3.36"
         id="path9"
         d="m 350.16812,88.189554 -8.63822,-14.961829 -8.63821,-14.96183 17.27643,-10e-7 17.27643,0 -8.63821,14.961831 z"
         transform="matrix(0.4934275,0,0,0.4934275,187.0986,72.24279)" />
    </g>
    <text
       xml:space="preserve"
       style="font-style:normal;font-variant:normal;font-weight:normal;font-stretch:normal;font-size:14.8563px;font-family:Marhey;-inkscape-font-specification:'Marhey, @wght=567';font-variant-ligatures:normal;font-variant-caps:normal;font-variant-numeric:normal;font-variant-east-asian:normal;font-variation-settings:'wght' 567;text-align:center;writing-mode:lr-tb;direction:rtl;text-anchor:middle;fill:#ffffff;fill-opacity:1;stroke-width:0.78097"
       x="382.95441"
       y="164.79846"
       id="text12"><tspan
         id="tspan12"
         style="fill:#ffffff;fill-opacity:1;stroke-width:0.78097"
         x="382.95441"
         y="164.79846">Alsafa Studio</tspan></text>
  </g>
</svg>
